solid x_min
facet normal -1.0 0.0 0.0
outer loop
vertex 0.012 0.015 0.026
vertex 0.012 0.015 0.006
vertex 0.012 0.005 0.026
endloop
endfacet
facet normal -1.0 0.0 0.0
outer loop
vertex 0.012 0.015 0.006
vertex 0.012 0.005 0.006
vertex 0.012 0.005 0.026
endloop
endfacet
endsolid x_min
solid x_max
facet normal 1.0 0.0 0.0
outer loop
vertex 0.022 0.005 0.026
vertex 0.022 0.015 0.006
vertex 0.022 0.015 0.026
endloop
endfacet
facet normal 1.0 0.0 0.0
outer loop
vertex 0.022 0.005 0.026
vertex 0.022 0.005 0.006
vertex 0.022 0.015 0.006
endloop
endfacet
endsolid x_max
solid y_min
facet normal 0.0 -1.0 0.0
outer loop
vertex 0.012 0.005 0.006
vertex 0.022 0.005 0.006
vertex 0.022 0.005 0.026
endloop
endfacet
facet normal 0.0 -1.0 0.0
outer loop
vertex 0.012 0.005 0.026
vertex 0.012 0.005 0.006
vertex 0.022 0.005 0.026
endloop
endfacet
endsolid y_min
solid y_max
facet normal 0.0 1.0 0.0
outer loop
vertex 0.022 0.015 0.026
vertex 0.022 0.015 0.006
vertex 0.012 0.015 0.006
endloop
endfacet
facet normal 0.0 1.0 0.0
outer loop
vertex 0.022 0.015 0.026
vertex 0.012 0.015 0.006
vertex 0.012 0.015 0.026
endloop
endfacet
endsolid y_max
solid z_min
facet normal 0.0 0.0 -1.0
outer loop
vertex 0.012 0.005 0.006
vertex 0.012 0.015 0.006
vertex 0.022 0.015 0.006
endloop
endfacet
facet normal 0.0 0.0 -1.0
outer loop
vertex 0.022 0.005 0.006
vertex 0.012 0.005 0.006
vertex 0.022 0.015 0.006
endloop
endfacet
endsolid z_min
solid z_max
facet normal 0.0 0.0 1.0
outer loop
vertex 0.022 0.015 0.026
vertex 0.012 0.015 0.026
vertex 0.012 0.005 0.026
endloop
endfacet
facet normal 0.0 0.0 1.0
outer loop
vertex 0.022 0.015 0.026
vertex 0.012 0.005 0.026
vertex 0.022 0.005 0.026
endloop
endfacet
endsolid z_max
